<?xml version="1.0" encoding="UTF-8"?> <svg xmlns="http://www.w3.org/2000/svg" width="52" height="52" viewBox="0 0 52 52" fill="none"><g clip-path="url(#clip0_17254_648)"><path d="M44.5263 22.244C44.5252 22.1217 44.4804 22.0038 44.4 21.9115C44.3197 21.8193 44.2091 21.7587 44.0881 21.7408C40.1559 21.1825 41.8382 21.4459 40.1068 21.1921C39.9075 19.9461 39.3723 18.6965 38.5302 17.7219C39.0231 16.9604 39.6224 16.2666 40.3159 15.6553C41.1982 14.8785 41.3912 14.1725 40.5536 13.3337C39.6967 12.4778 38.8393 11.6224 37.9815 10.7674C37.9009 10.6872 37.7959 10.6359 37.6829 10.6218C37.57 10.6077 37.4556 10.6315 37.3577 10.6894C36.1894 11.382 34.96 12.1465 33.4944 13.1149C32.3488 12.2989 31.1063 11.588 29.781 11.1516C29.8252 10.1007 29.8213 9.00097 29.6656 7.82802C29.6498 7.70938 29.593 7.59998 29.5051 7.51875C29.4172 7.43752 29.3037 7.38957 29.1842 7.38318C29.1326 7.38044 26.1929 7.22362 26.0256 7.2221C22.1752 7.19478 15.8863 9.35948 13.198 12.8387C10.5076 16.3205 9.66365 21.1876 10.8827 26.1922C12.3064 32.0354 15.1057 34.7003 17.3548 36.8414C21.4498 40.7401 20.6 41.4161 20.4088 45.4467H18.8512C18.5673 45.4467 18.3377 45.6766 18.3377 45.9602C18.3377 46.2437 18.5673 46.4737 18.8512 46.4737H20.3703C20.3607 46.8558 20.3526 47.2381 20.3551 47.62C20.3722 49.9922 21.3636 50.7026 23.545 50.6439L27.7033 50.5359C29.3072 50.4947 29.9868 49.9824 30.1199 48.3903C30.172 47.753 30.1963 47.1135 30.2071 46.4736H31.7728C32.0567 46.4736 32.2863 46.2436 32.2863 45.9601C32.2863 45.6765 32.0567 45.4466 31.7728 45.4466H30.2091C30.154 42.3506 29.5925 41.4732 30.134 38.4412C31.4706 38.111 32.9268 37.5788 34.1168 36.8536C35.2165 37.7322 36.051 38.2982 36.9435 39.0357C37.0382 39.1139 37.1577 39.1555 37.2804 39.1531C37.4032 39.1507 37.521 39.1045 37.6125 39.0227C38.0171 38.6613 40.9492 36.0585 41.1404 35.882C41.5639 35.4718 41.5829 35.0144 41.2668 34.5478C41.2324 34.4981 39.0815 32.0082 39.0417 31.9632C40.4246 30.1244 40.5727 28.4327 40.6539 28.3039C40.7069 28.2803 44.0427 28.0121 44.0946 28.0096C44.2277 28.0031 44.3531 27.9451 44.4443 27.8478C44.5354 27.7505 44.5852 27.6216 44.583 27.4883L44.5263 22.244ZM39.2415 13.4775C39.7938 14.0217 40.0382 14.2428 40.0556 14.3594C40.1115 14.6889 38.7622 15.3019 37.4444 17.5247C37.3857 17.624 37.362 17.7401 37.3773 17.8545C37.3926 17.9688 37.4459 18.0747 37.5286 18.1551C37.6718 18.2941 37.8133 18.4596 37.9656 18.6601L32.9199 26.9126C33.2124 25.8343 33.2604 24.6873 33.0545 23.5944L39.2415 13.4775ZM37.6944 11.9343C38.2709 12.5132 38.3359 12.572 38.8672 13.105L32.8854 22.8864C32.7051 22.2857 32.4446 21.7109 32.0957 21.1866C32.0856 21.1715 32.0744 21.1576 32.0643 21.1425L37.6944 11.9343ZM33.8732 14.0958C33.9371 14.0543 35.3064 13.1356 36.9823 12.1144L31.7361 20.6948C31.3875 20.2505 30.9981 19.8509 30.5741 19.5031L33.8732 14.0958ZM33.2251 14.1788L30.1641 19.1895C29.7227 18.8764 29.2477 18.6136 28.748 18.406L31.8795 13.2824C32.7406 13.8093 33.0506 14.0768 33.2251 14.1788ZM29.9747 12.3187C30.4436 12.4993 30.9338 12.7344 31.438 13.0197L28.2585 18.2217C27.7125 18.0405 27.1459 17.9284 26.572 17.888L29.9747 12.3187ZM26.5328 8.27388L26.8458 8.29084L26.5328 8.80282V8.27388ZM26.5328 9.78747L27.4286 8.32233C27.8505 8.34122 28.2727 8.36315 28.6967 8.3858C28.7438 8.86508 28.7525 9.17748 28.756 9.24573L26.5328 12.8807V9.78747ZM26.5328 13.865L28.7777 10.1944C28.7747 10.6436 28.7576 11.0813 28.7362 11.5006C28.7303 11.6171 28.7642 11.7322 28.8324 11.8268C28.9005 11.9215 28.9989 11.9901 29.1112 12.0214C29.2366 12.0563 29.3611 12.0944 29.4845 12.1357L26.5326 16.9669V13.865H26.5328ZM26.5328 18.9127C28.4003 19.0543 30.1324 20.0913 31.2411 21.7559C32.7621 24.0417 32.3709 27.4364 30.369 29.3234C29.3732 30.262 27.996 30.8058 26.5327 30.8519V18.9127H26.5328ZM26.5328 31.8731C26.8367 31.8648 27.1397 31.8377 27.4402 31.7919L26.5328 33.2764V31.8731ZM26.5328 34.2613L28.1264 31.6542C29.1647 31.3915 30.1169 30.9025 30.8979 30.2198L26.5329 37.3592V34.2613H26.5328ZM26.5328 38.344L38.281 19.1288C38.652 19.742 38.8703 20.3333 39.0219 21.0046L26.5328 41.432V38.344ZM28.8662 41.6495C28.5537 41.6546 27.82 41.6756 26.9921 41.6654L29.1498 38.1362C28.9289 39.3227 28.847 40.4227 28.8662 41.6495ZM18.0629 36.0976C15.9111 34.0491 13.2327 31.4998 11.8807 25.9492C10.7528 21.3189 11.5492 16.6526 14.0104 13.4667C16.3061 10.4957 21.5301 8.54698 25.5032 8.27165V41.6442H21.6048C21.32 39.1979 19.8029 37.754 18.0629 36.0976ZM29.0958 48.3061C29.016 49.2854 28.8401 49.4789 27.6767 49.5096L23.5179 49.6176C21.8659 49.6563 21.3942 49.3558 21.3821 47.6132C21.3709 45.9693 21.4913 44.3003 21.6205 42.6712C23.8555 42.6733 25.5846 42.6853 28.9921 42.6753C29.2095 44.5414 29.2496 46.4327 29.0958 48.3061ZM31.8553 36.8149C31.1643 37.0849 30.5434 37.2979 29.5768 37.5181C29.554 37.5234 29.5342 37.5348 29.5126 37.5431L39.1571 21.7683C39.2078 21.965 39.365 22.1193 39.5707 22.1507C39.9487 22.2084 40.3361 22.2601 40.7221 22.3126L31.8553 36.8149ZM39.2787 33.8185C40.3025 35.0312 40.2204 34.875 40.3894 35.0922C39.7566 35.7601 40.8289 34.7818 37.2543 37.9664C37.1408 37.8762 37.0235 37.786 36.9069 37.6957L39.2787 33.8185ZM37.9755 31.6553C37.8955 31.7509 37.853 31.8723 37.8558 31.997C37.8587 32.1216 37.9067 32.241 37.9911 32.3328C38.3135 32.6826 38.6204 33.0431 38.9283 33.4071L36.4966 37.3822C35.8412 36.8877 35.5026 36.6364 35.0976 36.3196L39.1521 29.6879C38.8578 30.3963 38.4694 31.0656 37.9755 31.6553ZM34.6931 35.9966C34.6229 35.94 34.5497 35.8833 34.4818 35.8268C34.3967 35.7559 34.2911 35.7144 34.1805 35.7086C34.07 35.7027 33.9605 35.7327 33.8684 35.7942C33.5102 36.0331 33.1078 36.2551 32.6728 36.4624L41.2768 22.39C41.6775 22.444 42.5087 22.5561 42.8793 22.6075L34.6931 35.9966ZM42.7944 27.0828C40.6762 27.2987 40.9896 27.2283 40.6332 27.2658L43.4346 22.6838C43.4573 22.6871 43.4807 22.6898 43.5033 22.6932L43.5371 25.8629L42.7944 27.0828ZM43.4304 27.0252L43.5474 26.833L43.5494 27.0144C43.5119 27.0171 43.4685 27.0221 43.4304 27.0252ZM26.6316 4.98925V1.86579C26.6316 1.58223 26.402 1.35229 26.1181 1.35229C25.8342 1.35229 25.6046 1.58223 25.6046 1.86579V4.98925C25.6046 5.05669 25.6179 5.12347 25.6437 5.18577C25.6695 5.24808 25.7073 5.30469 25.755 5.35238C25.8027 5.40006 25.8593 5.43789 25.9216 5.46369C25.9839 5.48949 26.0507 5.50276 26.1181 5.50275C26.1855 5.50276 26.2523 5.48949 26.3146 5.46369C26.3769 5.43789 26.4335 5.40006 26.4812 5.35238C26.5289 5.30469 26.5667 5.24808 26.5925 5.18577C26.6183 5.12347 26.6316 5.05669 26.6316 4.98925ZM36.7353 7.9632L39.0732 5.42119C39.1188 5.37156 39.1542 5.31343 39.1774 5.25011C39.2006 5.1868 39.211 5.11954 39.2082 5.05218C39.2053 4.98482 39.1893 4.91868 39.1609 4.85754C39.1325 4.7964 39.0923 4.74145 39.0426 4.69583C38.9423 4.60372 38.8096 4.55517 38.6735 4.56087C38.5375 4.56656 38.4092 4.62603 38.317 4.7262L35.9791 7.26821C35.887 7.36851 35.8384 7.50129 35.8442 7.63737C35.8499 7.77345 35.9094 7.90168 36.0097 7.99387C36.11 8.086 36.2428 8.13453 36.3789 8.12878C36.5149 8.12302 36.6432 8.06347 36.7353 7.9632Z" fill="white"></path><path d="M47.3502 18.5865C47.2836 18.4676 47.1726 18.3801 47.0416 18.343C46.9105 18.3059 46.7701 18.3223 46.6511 18.3886C45.7545 18.8901 44.7425 19.2244 43.7245 19.3552C43.5895 19.3726 43.4669 19.443 43.3837 19.5507C43.3004 19.6585 43.2634 19.7949 43.2807 19.9299C43.3177 20.2156 43.5803 20.4105 43.8558 20.3738C45.0022 20.2263 46.1421 19.85 47.1525 19.2853C47.2713 19.2188 47.3589 19.1078 47.3959 18.9768C47.433 18.8458 47.4165 18.7054 47.3502 18.5865ZM43.0209 31.4862L46.3893 32.8713C46.6508 32.9794 46.951 32.8543 47.0593 32.5917C47.1111 32.4658 47.1107 32.3244 47.0582 32.1987C47.0057 32.073 46.9055 31.9733 46.7795 31.9215L43.4111 30.5364C43.2851 30.4849 43.1439 30.4854 43.0183 30.5378C42.8927 30.5902 42.793 30.6903 42.7411 30.816C42.6893 30.942 42.6898 31.0834 42.7422 31.209C42.7947 31.3347 42.8949 31.4344 43.0209 31.4862ZM39.2473 43.3421C39.347 43.2494 39.4059 43.1209 39.4109 42.9848C39.4158 42.8487 39.3666 42.7162 39.2739 42.6165L37.1105 40.2883C37.0646 40.239 37.0095 40.1991 36.9482 40.171C36.8868 40.1429 36.8206 40.1272 36.7532 40.1248C36.6858 40.1223 36.6186 40.1331 36.5554 40.1566C36.4922 40.1801 36.4343 40.2158 36.3849 40.2617C36.3355 40.3076 36.2956 40.3628 36.2675 40.4241C36.2395 40.4854 36.2238 40.5517 36.2213 40.6191C36.2188 40.6864 36.2296 40.7537 36.2531 40.8169C36.2766 40.8801 36.3124 40.938 36.3583 40.9874L38.5217 43.3155C38.5675 43.3649 38.6227 43.4048 38.684 43.4329C38.7453 43.461 38.8116 43.4767 38.879 43.4792C38.9464 43.4817 39.0136 43.4708 39.0768 43.4473C39.14 43.4238 39.1979 43.3881 39.2473 43.3421ZM15.9903 7.99381C16.0906 7.90162 16.1501 7.77338 16.1558 7.63731C16.1616 7.50123 16.113 7.36844 16.0209 7.26815L13.682 4.72593C13.491 4.51702 13.1649 4.50433 12.9568 4.69587C12.9072 4.74152 12.867 4.79651 12.8386 4.8577C12.8102 4.91889 12.7942 4.98507 12.7914 5.05247C12.7886 5.11987 12.7991 5.18716 12.8223 5.25048C12.8456 5.31381 12.8811 5.37194 12.9268 5.42154L15.2647 7.96324C15.3568 8.06349 15.4851 8.12303 15.6212 8.12876C15.7572 8.1345 15.89 8.08595 15.9903 7.99381ZM8.71884 19.9299C8.72745 19.8631 8.7228 19.7951 8.70515 19.7301C8.6875 19.665 8.6572 19.604 8.61599 19.5506C8.57477 19.4973 8.52345 19.4525 8.46494 19.419C8.40644 19.3855 8.3419 19.3638 8.27502 19.3552C7.25655 19.2241 6.24509 18.89 5.3489 18.3888C5.29005 18.3559 5.2253 18.3349 5.15833 18.327C5.09137 18.3191 5.0235 18.3244 4.9586 18.3428C4.89371 18.3611 4.83306 18.392 4.78012 18.4338C4.72718 18.4755 4.68298 18.5273 4.65005 18.5862C4.61712 18.645 4.5961 18.7098 4.5882 18.7767C4.58029 18.8437 4.58565 18.9116 4.60398 18.9765C4.6223 19.0414 4.65323 19.102 4.69499 19.1549C4.73676 19.2079 4.78854 19.2521 4.84738 19.285C5.85681 19.8497 6.99675 20.2263 8.14359 20.3738C8.41924 20.4104 8.68177 20.2156 8.71884 19.9299ZM5.61022 32.8712L8.97915 31.4862C9.1051 31.4344 9.20533 31.3347 9.2578 31.209C9.31027 31.0834 9.31068 30.942 9.25895 30.816C9.20694 30.6903 9.10724 30.5903 8.98168 30.5379C8.85611 30.4855 8.7149 30.485 8.58895 30.5364L5.22002 31.9215C5.15765 31.9471 5.10094 31.9848 5.05312 32.0323C5.00531 32.0799 4.96733 32.1364 4.94134 32.1986C4.91536 32.2608 4.90189 32.3275 4.90169 32.3949C4.9015 32.4624 4.91459 32.5292 4.94021 32.5915C4.96579 32.6539 5.00341 32.7107 5.05094 32.7585C5.09848 32.8064 5.15497 32.8444 5.21721 32.8703C5.27944 32.8963 5.34619 32.9098 5.41362 32.9099C5.48106 32.9101 5.54787 32.8969 5.61022 32.8712ZM13.4784 43.3155L15.6412 40.9874C15.7339 40.8876 15.7832 40.7551 15.7782 40.6191C15.7732 40.483 15.7144 40.3545 15.6146 40.2617C15.4081 40.0692 15.0831 40.0805 14.889 40.2883L12.7261 42.6165C12.637 42.7168 12.5908 42.8481 12.5972 42.9821C12.6037 43.1161 12.6623 43.2423 12.7606 43.3336C12.8589 43.425 12.989 43.4742 13.1232 43.4708C13.2573 43.4674 13.3848 43.4117 13.4784 43.3155ZM14.3283 24.7878C14.3168 24.7561 14.2992 24.727 14.2764 24.7021C14.2537 24.6773 14.2262 24.6572 14.1956 24.6429C14.1651 24.6287 14.132 24.6207 14.0983 24.6192C14.0647 24.6178 14.031 24.623 13.9994 24.6346C13.9677 24.6461 13.9385 24.6638 13.9137 24.6866C13.8888 24.7094 13.8686 24.7368 13.8544 24.7674C13.8401 24.798 13.832 24.8311 13.8306 24.8648C13.8291 24.8985 13.8343 24.9322 13.8459 24.9639C13.9446 25.235 14.0543 25.5019 14.1749 25.764C14.2034 25.8258 14.2553 25.8737 14.3192 25.8972C14.383 25.9208 14.4536 25.918 14.5154 25.8896C14.5773 25.8611 14.6253 25.8092 14.6489 25.7453C14.6725 25.6814 14.6697 25.6108 14.6413 25.5489C14.5268 25.2995 14.4224 25.0456 14.3283 24.7878ZM21.1625 10.6456C15.743 12.1663 12.1836 17.6738 13.4328 23.5235C13.4471 23.5901 13.4873 23.6482 13.5444 23.6852C13.6016 23.7222 13.6711 23.735 13.7377 23.7209C13.8042 23.7066 13.8624 23.6665 13.8995 23.6094C13.9365 23.5523 13.9494 23.4828 13.9352 23.4162C12.7451 17.843 16.1306 12.591 21.3009 11.14C21.3334 11.1309 21.3637 11.1155 21.3902 11.0947C21.4168 11.0739 21.4389 11.048 21.4554 11.0187C21.472 10.9893 21.4825 10.9569 21.4866 10.9235C21.4906 10.89 21.488 10.8561 21.4789 10.8236C21.4698 10.7911 21.4544 10.7608 21.4336 10.7343C21.4128 10.7077 21.3869 10.6856 21.3576 10.6691C21.3282 10.6525 21.2958 10.642 21.2624 10.6379C21.2289 10.6339 21.1949 10.6365 21.1625 10.6456ZM27.2223 48.0445H27.2168L23.9833 48.1122C23.0465 48.129 22.9073 47.9058 22.9532 47.1356L23.0992 44.7139C23.1033 44.646 23.0802 44.5792 23.0351 44.5282C22.99 44.4772 22.9264 44.4463 22.8585 44.4422C22.7011 44.4369 22.5947 44.5417 22.5867 44.6829L22.4408 47.1047C22.3695 48.2896 22.8754 48.6495 23.9944 48.6257L27.2279 48.558C27.2943 48.5547 27.3568 48.5259 27.4023 48.4775C27.4479 48.4291 27.4729 48.365 27.4722 48.2985C27.4715 48.2321 27.4451 48.1685 27.3985 48.1211C27.3519 48.0738 27.2887 48.0463 27.2223 48.0445Z" fill="white"></path></g><defs><clipPath id="clip0_17254_648"><rect width="52" height="52" fill="white"></rect></clipPath></defs></svg> 