<?xml version="1.0" encoding="UTF-8"?> <svg xmlns="http://www.w3.org/2000/svg" width="52" height="52" viewBox="0 0 52 52" fill="none"><g clip-path="url(#clip0_17254_620)"><g clip-path="url(#clip1_17254_620)"><path d="M38.3106 36.3324H36.3812V41.5781H38.3106V36.3324ZM37.9435 38.7839V39.1265H36.7483V38.7839H37.9435ZM36.7483 38.4168V38.0741H37.9435V38.4168H36.7483ZM37.9435 39.4936V39.8363H36.7483V39.4936H37.9435ZM37.9435 37.707H36.7483V37.3644H37.9435V37.707ZM36.7483 40.2034H37.9435V40.5461H36.7483V40.2034ZM37.9435 36.6995V37.0013H36.7483V36.6995H37.9435ZM36.7483 41.2109V40.9091H37.9435V41.2109H36.7483ZM13.6894 41.5781H15.6188V36.3324H13.6894V41.5781ZM14.0565 39.1265V38.7839H15.2516V39.1265H14.0565ZM15.2516 39.4936V39.8363H14.0565V39.4936H15.2516ZM14.0565 38.4168V38.0741H15.2516V38.4168H14.0565ZM14.0565 40.2034H15.2516V40.5461H14.0565V40.2034ZM15.2516 37.707H14.0565V37.3644H15.2516V37.707ZM14.0565 41.2109V40.9091H15.2516V41.2109H14.0565ZM15.2516 36.6995V37.0013H14.0565V36.6995H15.2516ZM37.4744 48.023H39.4038V42.7773H37.4744V48.023ZM37.8415 45.5715V45.2288H39.0367V45.5715H37.8415ZM39.0367 45.9386V46.2812H37.8415V45.9386H39.0367ZM37.8415 44.8617V44.5191H39.0367V44.8617H37.8415ZM37.8415 46.6483H39.0367V46.991H37.8415V46.6483ZM39.0367 44.1519H37.8415V43.8093H39.0367V44.1519ZM37.8415 47.6559V47.354H39.0367V47.6559H37.8415ZM39.0367 43.1444V43.4463H37.8415V43.1444H39.0367ZM14.5256 42.7773H12.5962V48.023H14.5256V42.7773ZM14.1585 45.2288V45.5715H12.9633V45.2288H14.1585ZM12.9633 44.8617V44.5191H14.1585V44.8617H12.9633ZM14.1585 45.9386V46.2812H12.9633V45.9386H14.1585ZM14.1585 44.1519H12.9633V43.8093H14.1585V44.1519ZM12.9633 46.6483H14.1585V46.991H12.9633V46.6483ZM14.1585 43.1444V43.4463H12.9633V43.1444H14.1585ZM12.9633 47.6559V47.354H14.1585V47.6559H12.9633ZM11.6172 35.0719L0 42.6835V43.7889L0.999372 43.1322V50.5642H51.0006V43.1322L52 43.7889V42.6835L40.3828 35.076V29.5897L41.4067 30.5401V29.2593L31.8698 20.3954C31.882 20.3669 31.8902 20.3342 31.8902 20.3016V10.8463H33.0119L26 2.47607L18.9881 10.8423H20.1098V20.2975C20.1098 20.3302 20.118 20.3628 20.1302 20.3914L10.5933 29.2552V30.536L11.6172 29.5856V35.0719ZM1.52965 43.1036L10.8789 36.9809L10.5933 50.038H1.52965V43.1077V43.1036ZM30.5686 36.9973C30.6257 36.9973 30.6705 37.0421 30.6705 37.0992C30.6705 37.1563 30.6257 37.2012 30.5686 37.2012H21.4722V49.8708C21.4722 49.9279 21.4274 49.9728 21.3703 49.9728C21.3131 49.9728 21.2683 49.9279 21.2683 49.8708V36.9973H30.5686ZM31.1927 43.8134H34.2601L31.1927 48.8959V43.8134ZM34.9821 42.9976H31.9147L34.9821 37.915V42.9976ZM34.9821 44.1968V49.6872H31.6699L34.9821 44.1968ZM31.1927 42.6182V37.1278H34.5049L31.1927 42.6182ZM20.0813 43.0016H17.0138V37.9191L20.0813 43.0016ZM20.8033 48.9L17.7358 43.8175H20.8033V48.9ZM17.0138 44.2009L20.326 49.6913H17.0138V44.2009ZM20.8033 42.6223L17.4911 37.1319H20.8033V42.6223ZM39.8525 50.038H35.749V36.52C35.749 36.4343 35.6796 36.3691 35.594 36.3691H16.4019C16.3163 36.3691 16.251 36.4384 16.251 36.52V50.038H12.1475V30.2831H39.8525V50.038ZM50.4703 50.038H41.578L41.2965 37.0992L50.4703 43.1077V50.038ZM12.1679 29.0757L26 16.2185L39.8321 29.0757H12.1679ZM27.7418 16.557V13.0939L27.9212 13.0857L27.7418 13.0776V12.274L29.4794 12.1924L27.7418 12.1108V11.4256L29.8425 11.344V18.5068L27.7418 16.557ZM25.9184 3.39794L26.7791 10.3079H25.1923L25.225 9.04338L24.6743 10.3079H24.1685L24.9598 7.61163L23.524 10.3079H23.1365L25.07 6.2329L22.3696 10.3079H22.0963L25.1556 5.31919C25.1556 5.31919 21.2112 10.3038 21.2071 10.3079H21.0602L25.8858 3.78546L21.4274 8.75784L25.9225 3.39794H25.9184ZM29.6712 10.3079L26.7505 4.4014L30.7236 10.3079H29.6712ZM28.2557 10.3079L26.4569 4.27494L29.4427 10.3079H28.2557ZM28.0436 10.3079H26.9871L26.2407 4.25455L28.0436 10.3079ZM21.5089 11.6662L24.2582 11.5602V11.9477L21.5089 11.8212V11.6662ZM21.5089 10.9238V10.8382H24.2582V11.0299L21.5089 10.9238ZM21.5089 14.3176L24.2582 14.1218V14.8153L21.5089 14.5501V14.3176ZM21.5089 13.6323V13.4365L24.2582 13.2856V13.8281L21.5089 13.6323ZM21.5089 12.7268V12.5555L24.2582 12.429V12.8777L21.5089 12.7268ZM24.4622 12.4209L27.5378 12.2781V13.0613L24.4622 12.8899V12.4209ZM24.4622 11.9599V11.552L27.5378 11.4337V12.1027L24.4622 11.9599ZM24.4622 11.0421V10.8423H27.5378V11.1645L24.4622 11.0462V11.0421ZM21.5089 16.0308L23.2466 15.7657L21.5089 15.5005V15.1905L24.2582 14.9254V16.039L21.5089 17.7726V16.0349V16.0308ZM24.4622 15.9085V14.905L24.8048 14.8724L24.4622 14.8397V14.1137L26.363 13.9791L24.4622 13.8444V13.2775L27.5378 13.1061V16.3653L26 14.9336L24.4622 15.9044V15.9085ZM27.7418 11.1727V10.8423H29.8425V11.2542L27.7418 11.1727ZM30.9642 10.312L27.2727 4.82154L31.8739 10.312H30.9642ZM31.3599 19.9182L30.0464 18.6985V11.3399L31.0376 11.3032L30.0464 11.2665V10.8463H31.3599V19.9223V19.9182ZM43.4992 39.1796C43.4992 39.1225 43.5441 39.0776 43.5971 39.0735C43.6501 39.0735 43.6991 39.1184 43.7032 39.1714L43.9765 49.3487C43.9765 49.4058 43.9316 49.4507 43.8786 49.4547C43.8255 49.4547 43.7766 49.4099 43.7725 49.3568L43.4992 39.1796ZM8.45183 39.2897L8.23564 49.4425C8.23564 49.4996 8.19077 49.5404 8.13367 49.5404C8.07656 49.5404 8.03169 49.4915 8.03169 49.4343L8.24788 39.2815C8.24788 39.2244 8.29275 39.1836 8.34986 39.1836C8.40697 39.1836 8.45183 39.2326 8.45183 39.2897ZM44.7637 49.4017V39.9138C44.7637 39.8567 44.8086 39.8118 44.8657 39.8118C44.9228 39.8118 44.9677 39.8567 44.9677 39.9138V49.4017C44.9677 49.4588 44.9228 49.5037 44.8657 49.5037C44.8086 49.5037 44.7637 49.4588 44.7637 49.4017ZM7.25259 40.0158L7.24035 49.418C7.24035 49.4751 7.19548 49.52 7.13837 49.52C7.08127 49.52 7.0364 49.4751 7.0364 49.418L7.04863 40.0158C7.04863 39.9587 7.0935 39.9138 7.15061 39.9138C7.20772 39.9138 7.25259 39.9587 7.25259 40.0158ZM45.7141 49.3976L45.9344 40.6847C45.9344 40.6276 45.9834 40.5868 46.0364 40.5868C46.0935 40.5868 46.1384 40.6358 46.1384 40.6929L45.9181 49.4058C45.9181 49.4629 45.8692 49.5037 45.8161 49.5037C45.759 49.5037 45.7141 49.4547 45.7141 49.3976ZM6.06966 40.8887L6.28585 49.4751C6.28585 49.5322 6.24098 49.5771 6.18795 49.5812C6.13084 49.5812 6.08597 49.5363 6.08189 49.4833L5.8657 40.8969C5.8657 40.8397 5.91057 40.7949 5.9636 40.7908C6.02887 40.7949 6.06558 40.8357 6.06966 40.8887ZM47.2275 49.3242V41.5781C47.2275 41.5209 47.2724 41.4761 47.3295 41.4761C47.3866 41.4761 47.4314 41.5209 47.4314 41.5781V49.3242C47.4314 49.3813 47.3866 49.4262 47.3295 49.4262C47.2724 49.4262 47.2275 49.3813 47.2275 49.3242ZM4.77251 41.6311V49.4099C4.77251 49.467 4.72764 49.5118 4.67054 49.5118C4.61343 49.5118 4.56856 49.467 4.56856 49.4099V41.6311C4.56856 41.574 4.61343 41.5291 4.67054 41.5291C4.72764 41.5291 4.77251 41.574 4.77251 41.6311ZM49.5648 49.4792V43.0343C49.5648 42.9772 49.6097 42.9323 49.6668 42.9323C49.7239 42.9323 49.7687 42.9772 49.7687 43.0343V49.4792C49.7687 49.5363 49.7239 49.5812 49.6668 49.5812C49.6097 49.5812 49.5648 49.5363 49.5648 49.4792ZM2.43521 43.1526V49.52C2.43521 49.5771 2.39034 49.622 2.33323 49.622C2.27612 49.622 2.23125 49.5771 2.23125 49.52V43.1526C2.23125 43.0955 2.27612 43.0506 2.33323 43.0506C2.39034 43.0506 2.43521 43.0955 2.43521 43.1526ZM13.0612 42.2552L13.0367 30.8011C13.0367 30.744 13.0816 30.6992 13.1387 30.6992C13.1958 30.6992 13.2407 30.744 13.2407 30.8011L13.2651 42.2552C13.2651 42.3123 13.2203 42.3572 13.1632 42.3572C13.1061 42.3572 13.0612 42.3123 13.0612 42.2552ZM15.3495 42.0716L15.5045 49.6465C15.5045 49.7036 15.4597 49.7484 15.4026 49.7525C15.3455 49.7525 15.3006 49.7076 15.3006 49.6546L15.1456 42.0798C15.1456 42.0227 15.1905 41.9778 15.2476 41.9737C15.3169 41.9737 15.3495 42.0186 15.3495 42.0716ZM13.6567 48.4554L13.6323 49.6546C13.6323 49.7117 13.5874 49.7525 13.5303 49.7525C13.4732 49.7525 13.4283 49.7036 13.4283 49.6465L13.4528 48.4472C13.4528 48.3901 13.5017 48.3575 13.5588 48.3493C13.6159 48.3493 13.6608 48.3983 13.6567 48.4554ZM14.2727 35.8266L14.24 30.8542C14.24 30.7971 14.2849 30.7522 14.342 30.7522C14.3991 30.7522 14.444 30.7971 14.444 30.8542L14.4766 35.8266C14.4766 35.8837 14.4318 35.9285 14.3746 35.9285C14.3175 35.9285 14.2727 35.8837 14.2727 35.8266ZM16.7283 30.8501L16.9118 35.8225C16.9118 35.8796 16.871 35.9245 16.8139 35.9285C16.7609 35.9285 16.712 35.8837 16.7079 35.8306L16.5243 30.8583C16.5243 30.8011 16.5651 30.7563 16.6222 30.7522C16.6834 30.7522 16.7242 30.793 16.7283 30.8501ZM18.2131 30.8501L18.2661 35.8225C18.2661 35.8796 18.2212 35.9245 18.1641 35.9245C18.107 35.9245 18.0621 35.8796 18.0621 35.8225L18.0091 30.8501C18.0091 30.793 18.054 30.7481 18.1111 30.7481C18.1641 30.74 18.2131 30.793 18.2131 30.8501ZM19.6203 30.8542L19.3878 35.8266C19.3878 35.8796 19.3389 35.9245 19.2858 35.9245H19.2818C19.2247 35.9245 19.1839 35.8755 19.1839 35.8184L19.4164 30.846C19.4164 30.7889 19.4694 30.744 19.5224 30.7481C19.5795 30.7481 19.6203 30.7971 19.6203 30.8542ZM20.481 30.8501V35.8225C20.481 35.8796 20.4361 35.9245 20.379 35.9245C20.3219 35.9245 20.2771 35.8796 20.2771 35.8225V30.8501C20.2771 30.793 20.3219 30.7481 20.379 30.7481C20.4361 30.7481 20.481 30.793 20.481 30.8501ZM23.1773 30.8501L23.2303 35.8225C23.2303 35.8796 23.1854 35.9245 23.1283 35.9245C23.0712 35.9245 23.0264 35.8796 23.0264 35.8225L22.9733 30.8501C22.9733 30.793 23.0182 30.7481 23.0753 30.7481C23.1324 30.7481 23.1773 30.793 23.1773 30.8501ZM24.4663 30.8501V35.8225C24.4663 35.8796 24.4214 35.9245 24.3643 35.9245C24.3072 35.9245 24.2623 35.8796 24.2623 35.8225V30.8501C24.2623 30.793 24.3072 30.7481 24.3643 30.7481C24.4214 30.7481 24.4663 30.793 24.4663 30.8501ZM26.1061 30.8501L26.0653 35.8225C26.0653 35.8796 26.0204 35.9245 25.9633 35.9245C25.9062 35.9245 25.8613 35.8796 25.8613 35.8225L25.9021 30.8501C25.9021 30.793 25.947 30.7481 26.0041 30.7481C26.0612 30.7481 26.1061 30.793 26.1061 30.8501ZM27.2767 30.8501V35.8225C27.2767 35.8796 27.2319 35.9245 27.1748 35.9245C27.1177 35.9245 27.0728 35.8796 27.0728 35.8225V30.8501C27.0728 30.793 27.1177 30.7481 27.1748 30.7481C27.2319 30.7481 27.2767 30.793 27.2767 30.8501ZM29.0348 30.8501V35.8225C29.0348 35.8796 28.99 35.9245 28.9329 35.9245C28.8757 35.9245 28.8309 35.8796 28.8309 35.8225V30.8501C28.8309 30.793 28.8757 30.7481 28.9329 30.7481C28.99 30.7481 29.0348 30.793 29.0348 30.8501ZM30.0505 30.8501L30.0913 35.8225C30.0913 35.8796 30.0464 35.9245 29.9893 35.9245C29.9322 35.9245 29.8874 35.8796 29.8874 35.8225L29.8466 30.8501C29.8466 30.793 29.8914 30.7481 29.9485 30.7481C30.0056 30.7481 30.0505 30.793 30.0505 30.8501ZM31.7311 30.8501V35.8225C31.7311 35.8796 31.6862 35.9245 31.6291 35.9245C31.572 35.9245 31.5271 35.8796 31.5271 35.8225V30.8501C31.5271 30.793 31.572 30.7481 31.6291 30.7481C31.6862 30.7481 31.7311 30.793 31.7311 30.8501ZM33.1955 30.8501L33.1221 35.8225C33.1221 35.8796 33.0772 35.9245 33.0201 35.9245C32.963 35.9245 32.9181 35.8755 32.9181 35.8225L32.9915 30.8501C32.9915 30.793 33.0364 30.7481 33.0935 30.7481C33.1506 30.7481 33.1955 30.7971 33.1955 30.8501ZM34.1255 30.8501L34.1133 35.8225C34.1133 35.8796 34.0684 35.9245 34.0113 35.9245C33.9542 35.9245 33.9093 35.8796 33.9093 35.8225L33.9216 30.8501C33.9216 30.793 33.9664 30.7481 34.0235 30.7481C34.0806 30.7481 34.1255 30.793 34.1255 30.8501ZM35.0922 30.8501V35.8225C35.0922 35.8796 35.0474 35.9245 34.9903 35.9245C34.9332 35.9245 34.8883 35.8796 34.8883 35.8225V30.8501C34.8883 30.793 34.9332 30.7481 34.9903 30.7481C35.0474 30.7481 35.0922 30.793 35.0922 30.8501ZM37.5601 35.8184L37.7232 30.8909C37.7232 30.8338 37.7722 30.793 37.8252 30.793C37.8823 30.793 37.9272 30.8419 37.9272 30.899L37.764 35.8266C37.764 35.8837 37.7151 35.9245 37.6621 35.9245C37.605 35.9245 37.5601 35.8755 37.5601 35.8184ZM38.8287 42.3327V30.7971C38.8287 30.74 38.8735 30.6951 38.9307 30.6951C38.9878 30.6951 39.0326 30.74 39.0326 30.7971V42.3327C39.0326 42.3898 38.9878 42.4347 38.9307 42.4347C38.8735 42.4347 38.8287 42.3898 38.8287 42.3327ZM37.0135 42.0227L36.732 49.6628C36.732 49.7158 36.6831 49.7607 36.6301 49.7607C36.573 49.7607 36.5281 49.7117 36.5281 49.6546L36.8095 42.0145C36.8095 41.9574 36.8585 41.9207 36.9156 41.9166C36.9727 41.9166 37.0176 41.9656 37.0135 42.0227ZM38.3147 48.3656L38.4045 49.7117C38.4045 49.7688 38.3677 49.8178 38.3106 49.8219H38.3025C38.2494 49.8219 38.2046 49.7811 38.2005 49.728L38.1108 48.3819C38.1108 48.3248 38.1475 48.2759 38.2046 48.2718C38.2617 48.2718 38.3106 48.3085 38.3147 48.3656ZM27.4848 28.0967H38.3147C38.3718 28.0967 38.4167 28.1416 38.4167 28.1987C38.4167 28.2558 38.3718 28.3007 38.3147 28.3007H27.4848C27.4277 28.3007 27.3828 28.2558 27.3828 28.1987C27.3828 28.1416 27.4277 28.0967 27.4848 28.0967ZM24.7518 28.1987C24.7518 28.2558 24.7069 28.3007 24.6498 28.3007H13.6567C13.5996 28.3007 13.5548 28.2558 13.5548 28.1987C13.5548 28.1416 13.5996 28.0967 13.6567 28.0967H24.6498C24.7069 28.0967 24.7518 28.1416 24.7518 28.1987ZM27.444 26.7017H36.6994C36.7565 26.7017 36.8014 26.7465 36.8014 26.8037C36.8014 26.8608 36.7565 26.9056 36.6994 26.9056H27.444C27.3869 26.9056 27.342 26.8608 27.342 26.8037C27.342 26.7465 27.3869 26.7017 27.444 26.7017ZM27.4685 25.4861H28.3536C28.4107 25.4861 28.4556 25.531 28.4556 25.5881C28.4556 25.6452 28.4107 25.6901 28.3536 25.6901H27.4685C27.4114 25.6901 27.3665 25.6452 27.3665 25.5881C27.3665 25.531 27.4114 25.4861 27.4685 25.4861ZM24.5071 25.4861C24.5642 25.4861 24.609 25.531 24.609 25.5881C24.609 25.6452 24.5642 25.6901 24.5071 25.6901H23.6708C23.6137 25.6901 23.5689 25.6452 23.5689 25.5881C23.5689 25.531 23.6137 25.4861 23.6708 25.4861H24.5071ZM16.2592 25.5881C16.2592 25.531 16.304 25.4861 16.3612 25.4861H20.84C20.8971 25.4861 20.942 25.531 20.942 25.5881C20.942 25.6452 20.8971 25.6901 20.84 25.6901H16.3612C16.304 25.6901 16.2592 25.6452 16.2592 25.5881ZM31.1111 24.087H34.0643C34.1214 24.087 34.1663 24.1319 34.1663 24.189C34.1663 24.2461 34.1214 24.2909 34.0643 24.2909H31.1111C31.054 24.2909 31.0091 24.2461 31.0091 24.189C31.0091 24.1319 31.054 24.087 31.1111 24.087ZM17.899 24.189C17.899 24.1319 17.9438 24.087 18.0009 24.087H20.8073C20.8644 24.087 20.9093 24.1319 20.9093 24.189C20.9093 24.2461 20.8644 24.2909 20.8073 24.2909H18.0009C17.9438 24.2909 17.899 24.2461 17.899 24.189ZM31.0458 23.1692H33.0242C33.0813 23.1692 33.1261 23.2141 33.1261 23.2712C33.1261 23.3283 33.0813 23.3732 33.0242 23.3732H31.0458C30.9887 23.3732 30.9438 23.3283 30.9438 23.2712C30.9438 23.2141 30.9887 23.1692 31.0458 23.1692ZM23.6627 23.1692H28.2109C28.268 23.1692 28.3128 23.2141 28.3128 23.2712C28.3128 23.3283 28.268 23.3732 28.2109 23.3732H23.6627C23.6056 23.3732 23.5607 23.3283 23.5607 23.2712C23.5607 23.2141 23.6056 23.1692 23.6627 23.1692ZM27.3339 21.7742H31.5394C31.5965 21.7742 31.6414 21.819 31.6414 21.8761C31.6414 21.9332 31.5965 21.9781 31.5394 21.9781H27.3339C27.2767 21.9781 27.2319 21.9332 27.2319 21.8761C27.2319 21.819 27.2767 21.7742 27.3339 21.7742ZM20.3709 21.8761C20.3709 21.819 20.4157 21.7742 20.4729 21.7742H24.5846C24.6417 21.7742 24.6865 21.819 24.6865 21.8761C24.6865 21.9332 24.6417 21.9781 24.5846 21.9781H20.4729C20.4157 21.9781 20.3709 21.9332 20.3709 21.8761ZM21.6721 20.5382C21.6721 20.4811 21.717 20.4362 21.7741 20.4362H24.6009C24.658 20.4362 24.7029 20.4811 24.7029 20.5382C24.7029 20.5953 24.658 20.6402 24.6009 20.6402H21.7741C21.717 20.6402 21.6721 20.5953 21.6721 20.5382ZM24.6131 17.9358H27.2441C27.3012 17.9358 27.3461 17.9806 27.3461 18.0377C27.3461 18.0948 27.3012 18.1397 27.2441 18.1397H24.6131C24.556 18.1397 24.5111 18.0948 24.5111 18.0377C24.5111 17.9806 24.556 17.9358 24.6131 17.9358ZM27.3216 19.0412H28.7003C28.7575 19.0412 28.8023 19.0861 28.8023 19.1432C28.8023 19.2003 28.7575 19.2451 28.7003 19.2451H27.3216C27.2645 19.2451 27.2196 19.2003 27.2196 19.1432C27.2196 19.0861 27.2645 19.0412 27.3216 19.0412ZM30.7603 31.2172C30.5074 31.2172 30.3728 31.6006 30.3728 31.9841C30.3728 32.3675 30.5074 32.7509 30.7603 32.7509C31.0132 32.7509 31.1478 32.3675 31.1478 31.9841C31.1478 31.6006 31.0132 31.2172 30.7603 31.2172ZM30.7603 32.547C30.7072 32.547 30.5767 32.3553 30.5767 31.9841C30.5767 31.6129 30.7072 31.4212 30.7603 31.4212C30.8133 31.4212 30.9438 31.6129 30.9438 31.9841C30.9438 32.3553 30.8133 32.547 30.7603 32.547ZM35.9815 34.2398C35.7286 34.2398 35.5287 34.5661 35.5287 34.9781C35.5287 35.3901 35.7286 35.7164 35.9815 35.7164C36.2344 35.7164 36.4343 35.3901 36.4343 34.9781C36.4343 34.5661 36.2344 34.2398 35.9815 34.2398ZM35.9815 35.5166C35.8632 35.5166 35.7327 35.2881 35.7327 34.9822C35.7327 34.6763 35.8632 34.4478 35.9815 34.4478C36.0998 34.4478 36.2303 34.6763 36.2303 34.9822C36.2303 35.2881 36.0998 35.5166 35.9815 35.5166ZM16.0634 34.7089C15.8553 34.7089 15.6881 34.9006 15.6881 35.1372C15.6881 35.3738 15.8553 35.5655 16.0634 35.5655C16.2714 35.5655 16.4387 35.3738 16.4387 35.1372C16.4387 34.9006 16.2714 34.7089 16.0634 34.7089ZM16.0634 35.3616C15.9696 35.3616 15.8921 35.2596 15.8921 35.1372C15.8921 35.0148 15.9696 34.9129 16.0634 34.9129C16.1572 34.9129 16.2347 35.0148 16.2347 35.1372C16.2347 35.2596 16.1572 35.3616 16.0634 35.3616ZM25.2168 33.8523C25.0169 33.8523 24.8538 34.0399 24.8538 34.2684C24.8538 34.4968 25.0169 34.6844 25.2168 34.6844C25.4167 34.6844 25.5799 34.4968 25.5799 34.2684C25.5799 34.0399 25.4167 33.8523 25.2168 33.8523ZM25.2168 34.4764C25.1312 34.4764 25.0577 34.3785 25.0577 34.2643C25.0577 34.1501 25.1312 34.0522 25.2168 34.0522C25.3025 34.0522 25.3759 34.1501 25.3759 34.2643C25.3759 34.3785 25.3025 34.4764 25.2168 34.4764ZM5.42924 47.5213C5.22529 47.5213 5.06621 47.7252 5.06621 47.9863C5.06621 48.2473 5.22529 48.4513 5.42924 48.4513C5.6332 48.4513 5.79228 48.2473 5.79228 47.9863C5.79228 47.7252 5.6332 47.5213 5.42924 47.5213ZM5.42924 48.2514C5.35582 48.2514 5.27016 48.1454 5.27016 47.9904C5.27016 47.8354 5.35174 47.7293 5.42924 47.7293C5.50675 47.7293 5.58833 47.8354 5.58833 47.9904C5.58833 48.1454 5.50675 48.2514 5.42924 48.2514ZM14.4644 48.6145C14.2604 48.6145 14.1013 48.8184 14.1013 49.0795C14.1013 49.3405 14.2604 49.5445 14.4644 49.5445C14.6683 49.5445 14.8274 49.3405 14.8274 49.0795C14.8274 48.8184 14.6683 48.6145 14.4644 48.6145ZM14.4644 49.3446C14.391 49.3446 14.3053 49.2386 14.3053 49.0835C14.3053 48.9285 14.391 48.8225 14.4644 48.8225C14.5378 48.8225 14.6235 48.9285 14.6235 49.0835C14.6235 49.2386 14.5419 49.3446 14.4644 49.3446ZM46.53 49.1855C46.7665 49.1855 46.9583 48.9775 46.9583 48.7205C46.9583 48.4635 46.7665 48.2555 46.53 48.2555C46.2934 48.2555 46.1017 48.4635 46.1017 48.7205C46.1017 48.9775 46.2934 49.1855 46.53 49.1855ZM46.53 48.4554C46.6523 48.4554 46.7543 48.5737 46.7543 48.7164C46.7543 48.8592 46.6523 48.9775 46.53 48.9775C46.4076 48.9775 46.3056 48.8592 46.3056 48.7164C46.3056 48.5737 46.4076 48.4554 46.53 48.4554ZM26.9667 18.7924H25.0373V22.6634H26.9667V18.7924ZM25.4045 22.2963V21.9536H26.5996V22.2963H25.4045ZM26.5996 19.1595V19.4613H25.4045V19.1595H26.5996ZM26.5996 20.167H25.4045V19.8244H26.5996V20.167ZM26.5996 20.5341V20.8768H25.4045V20.5341H26.5996ZM25.4045 21.2439H26.5996V21.5865H25.4045V21.2439ZM25.0373 28.6515H26.9667V24.7804H25.0373V28.6515ZM26.5996 25.1476V25.4494H25.4045V25.1476H26.5996ZM25.4045 28.2844V27.9417H26.5996V28.2844H25.4045ZM25.4045 26.5263H26.5996V26.8689H25.4045V26.5263ZM25.4045 27.236H26.5996V27.5787H25.4045V27.236ZM26.5996 26.1592H25.4045V25.8165H26.5996V26.1592ZM30.6787 22.4554H28.7493V26.3264H30.6787V22.4554ZM29.1164 25.9593V25.6166H30.3116V25.9593H29.1164ZM30.3116 22.8225V23.1243H29.1164V22.8225H30.3116ZM30.3116 23.83H29.1164V23.4874H30.3116V23.83ZM30.3116 24.1971V24.5398H29.1164V24.1971H30.3116ZM29.1164 24.9069H30.3116V25.2495H29.1164V24.9069ZM21.3295 26.3264H23.2589V22.4554H21.3295V26.3264ZM22.8917 22.8225V23.1243H21.6966V22.8225H22.8917ZM21.6966 25.9593V25.6166H22.8917V25.9593H21.6966ZM21.6966 24.9069H22.8917V25.2495H21.6966V24.9069ZM21.6966 24.5398V24.1971H22.8917V24.5398H21.6966ZM22.8917 23.83H21.6966V23.4874H22.8917V23.83Z" fill="white"></path></g></g><defs><clipPath id="clip0_17254_620"><rect width="52" height="52" fill="white"></rect></clipPath><clipPath id="clip1_17254_620"><rect width="52" height="48.0882" fill="white" transform="translate(0 2.47607)"></rect></clipPath></defs></svg> 