<?xml version="1.0" encoding="UTF-8"?> <svg xmlns="http://www.w3.org/2000/svg" width="52" height="52" viewBox="0 0 52 52" fill="none"><g clip-path="url(#clip0_17254_1320)"><g clip-path="url(#clip1_17254_1320)"><path d="M51.6541 32.3777C51.6541 32.3777 51.6816 32.3667 51.6926 32.3612C51.7145 32.3557 51.7365 32.3502 51.753 32.3392C51.7749 32.3282 51.7914 32.3118 51.8134 32.2953C51.8243 32.2843 51.8408 32.2733 51.8518 32.2624C51.8793 32.2294 51.9012 32.1965 51.9177 32.158C51.9177 32.1471 51.9177 32.1416 51.9232 32.1306C51.9342 32.1031 51.9396 32.0757 51.9451 32.0482C52.3624 25.7232 50.3804 16.8287 46.4492 13.485C38.6967 6.8965 25.031 7.87929 21.023 8.335C8.08197 9.81742 1.8009 13.5235 0.669873 20.3536C0.0988666 23.7906 -0.428216 28.2543 0.521631 32.2569C1.23539 35.315 2.75624 37.7528 5.04576 39.5097L5.3093 39.7074C5.37518 39.7568 5.44656 39.8062 5.51794 39.8556C5.9407 40.1631 6.36346 40.4486 6.83015 40.7396C7.01683 40.8549 7.21448 40.9702 7.40116 41.0745C7.78549 41.2996 8.19727 41.5247 8.66396 41.7553C8.99339 41.9201 9.33379 42.0793 9.67969 42.233C10.0695 42.4032 10.4758 42.5679 10.8821 42.7162C11.3872 42.9138 11.8978 43.0895 12.4524 43.2542C12.8257 43.3695 13.21 43.4793 13.5999 43.5782C14.3026 43.7539 14.989 43.9021 15.6533 44.0229C16.0157 44.0833 16.378 44.1437 16.7459 44.1986C17.5859 44.3194 18.4919 44.4127 19.4417 44.4676C19.7876 44.4896 20.1445 44.506 20.4959 44.5115C20.9022 44.528 21.3194 44.5335 21.7422 44.5335C22.4011 44.5335 23.0764 44.517 23.7517 44.4841C24.1086 44.4676 24.4655 44.4457 24.8223 44.4182C26.8373 44.27 28.9292 43.979 31.0375 43.5562C31.1967 43.5233 31.3175 43.386 31.323 43.2268C31.3395 42.9028 31.7238 35.5676 31.5097 32.6522C37.1649 32.8938 48.2775 33.0036 51.6651 32.3831L51.6541 32.3777ZM21.023 41.2502C20.8692 42.1122 20.6771 42.9577 20.4684 43.7978C20.139 43.7868 19.8041 43.7758 19.4801 43.7539C19.4033 43.7539 19.3374 43.7429 19.2605 43.7374L19.1123 40.2839L18.5468 43.677C18.2173 43.6495 17.8934 43.6166 17.5804 43.5782L17.3718 39.1529L16.8337 43.4848C16.5592 43.4464 16.2902 43.4025 16.0157 43.3531L15.7411 37.7418L15.2305 43.2048C14.9944 43.1554 14.7529 43.106 14.5113 43.0511L14.1764 35.908L13.6767 42.8479C13.4297 42.782 13.1881 42.7107 12.9465 42.6393C12.7543 39.7898 12.6994 36.9128 12.6445 34.0413C12.4139 36.8084 12.1778 39.5811 12.0735 42.3703C11.8319 42.2879 11.5959 42.2056 11.3598 42.1177C11.0962 38.9552 11.0523 35.7488 11.0688 32.5588C10.7668 35.6115 10.5142 38.6752 10.4593 41.7663C10.2946 41.7004 10.1244 41.64 9.9652 41.5687C9.92127 41.5522 9.88284 41.5302 9.83892 41.5083C9.70165 40.1137 9.61381 38.7081 9.56439 37.2971C9.49302 35.2272 9.49851 33.1463 9.56439 31.0709C9.31732 33.1353 9.12516 35.2107 9.01535 37.2916C8.94946 38.5489 8.91652 39.8062 8.91652 41.0745C8.80122 41.0141 8.69141 40.9592 8.5816 40.8988C8.41689 39.4219 8.31257 37.934 8.25767 36.4406C8.1808 34.2719 8.19727 32.0976 8.31257 29.9289C8.01609 32.0867 7.81294 34.2554 7.70862 36.4406C7.64823 37.7528 7.62627 39.065 7.64823 40.3882C7.56038 40.3388 7.47253 40.2894 7.39018 40.2345C7.19252 38.6642 7.07173 37.0775 7.01134 35.4907C6.92898 33.2287 6.95643 30.9556 7.12664 28.6881C6.77525 30.9337 6.56112 33.2067 6.46229 35.4852C6.4019 36.8579 6.39641 38.236 6.43484 39.6141C6.37994 39.5756 6.32503 39.5372 6.27013 39.4988C6.03953 37.8516 5.89129 36.1825 5.8254 34.5079C5.73206 32.191 5.76501 29.8575 5.96815 27.5351C5.58931 29.8356 5.3642 32.169 5.27636 34.5079C5.22694 35.9245 5.23243 37.341 5.29283 38.763C5.27636 38.7466 5.25988 38.7356 5.23792 38.7191C4.9634 36.9896 4.78771 35.2327 4.70535 33.4757C4.59554 31.1423 4.62299 28.7924 4.83163 26.4535C4.44181 28.7704 4.22768 31.1203 4.15631 33.4812C4.12336 34.6507 4.12336 35.8257 4.17278 37.0006C3.92571 35.4468 3.7555 33.882 3.66217 32.3008C3.53039 29.9783 3.54687 27.6339 3.74452 25.3005C3.36568 27.612 3.16253 29.9564 3.11312 32.3118C3.09665 33.1738 3.11312 34.0358 3.13508 34.9033C2.89899 33.5197 2.71781 32.1251 2.60251 30.7195C2.41034 28.3532 2.37191 25.9703 2.58604 23.5929C2.19073 25.9483 2.04248 28.3477 2.05346 30.7415C2.05896 31.867 2.10837 32.9871 2.19073 34.1126C1.86679 32.1361 1.67462 30.1321 1.61423 28.1226C1.53736 25.3773 1.67462 22.6102 2.13033 19.8869C1.49344 22.5772 1.1695 25.3444 1.06518 28.1226C1.02675 29.1932 1.03773 30.2638 1.06518 31.3345C0.367898 27.6504 0.862038 23.6204 1.38363 20.4579C2.44878 14.0066 8.53219 10.4818 21.1053 9.04327C23.2027 8.80169 25.2506 8.68639 27.2272 8.68639C35.1444 8.68639 41.9196 10.5696 45.988 14.0341C47.3991 15.231 48.5575 17.268 49.436 19.6673C48.8815 18.4923 48.2556 17.6303 47.5802 17.2405C45.6751 16.1534 26.0138 15.7142 23.7792 15.6647C23.6419 15.6373 23.5266 15.7306 23.4607 15.8404C23.3948 15.9557 23.3948 16.093 23.4607 16.2028C23.4937 16.2577 26.7824 21.7042 28.3966 24.0047C29.9504 26.2229 30.3457 28.0182 30.7465 32.3008C31.0046 34.5464 30.6806 41.4314 30.6093 42.9028C28.6217 43.2872 26.6507 43.5562 24.751 43.6989C24.3996 43.7264 24.0482 43.7484 23.7023 43.7648C22.8403 43.8088 21.9948 43.8142 21.1712 43.8033C21.1437 42.9468 21.0943 42.0903 21.0175 41.2447L21.023 41.2502ZM31.4273 31.9274C31.032 27.7986 30.5763 25.8715 28.9841 23.5984C27.6884 21.7536 25.2945 17.8445 24.4106 16.395C33.1184 16.5871 45.9331 17.1252 47.2234 17.8609C49.134 18.9535 50.9733 25.3828 51.2149 31.7243C47.5363 32.2843 36.8574 32.1635 31.4273 31.9274ZM28.1111 29.0834C25.8985 29.7862 23.6035 30.0991 21.3414 30.0991C15.3294 30.0991 9.54243 27.9139 6.20973 25.1193C3.65118 22.9725 2.41583 20.4689 2.73428 18.0586C2.76173 17.8609 2.93743 17.7237 3.13508 17.7511C3.33274 17.7786 3.47 17.9543 3.44255 18.1519C3.15704 20.3097 4.29906 22.5882 6.66544 24.5702C11.1072 28.2928 20.0566 30.8952 27.8915 28.4026C28.0782 28.3422 28.2813 28.4465 28.3417 28.6332C28.4021 28.8198 28.2978 29.023 28.1111 29.0834ZM43.2647 21.9513C43.9181 21.9513 44.4452 21.4242 44.4452 20.7709C44.4452 20.1175 43.9181 19.5904 43.2647 19.5904C42.6114 19.5904 42.0843 20.1175 42.0843 20.7709C42.0843 21.4242 42.6114 21.9513 43.2647 21.9513ZM42.4961 20.8258C42.5675 20.7983 42.6443 20.8367 42.6718 20.9081C42.7157 21.0289 42.9243 21.2485 43.1824 21.3199C43.3361 21.3638 43.4679 21.3474 43.5777 21.265C43.6381 21.2211 43.7259 21.2321 43.7699 21.2924C43.8138 21.3528 43.8028 21.4407 43.7424 21.4846C43.6216 21.5725 43.4844 21.6219 43.3361 21.6219C43.2593 21.6219 43.1824 21.6109 43.1 21.5889C42.7651 21.4901 42.4851 21.2156 42.4082 21.0069C42.3808 20.9356 42.4192 20.8587 42.4906 20.8313L42.4961 20.8258ZM38.9328 23.7247C38.9328 22.6925 38.0269 21.8525 36.9123 21.8525C35.7977 21.8525 34.8918 22.6925 34.8918 23.7247C34.8918 24.7569 35.7977 25.597 36.9123 25.597C38.0269 25.597 38.9328 24.7569 38.9328 23.7247ZM37.6755 24.9985C37.4723 25.1193 37.2253 25.1797 36.9672 25.1797C36.6542 25.1797 36.3193 25.0918 36.0228 24.9271C35.5397 24.6526 35.2597 24.2134 35.2597 23.7302C35.2597 23.6533 35.3201 23.5929 35.3969 23.5929C35.4738 23.5929 35.5342 23.6533 35.5342 23.7302C35.5342 24.1145 35.7593 24.4659 36.1546 24.691C36.6103 24.9491 37.1758 24.982 37.5327 24.7679C37.5986 24.7295 37.681 24.7514 37.7194 24.8173C37.7578 24.8832 37.7359 24.9656 37.67 25.004L37.6755 24.9985ZM44.1542 27.9578C44.1542 28.3367 43.7589 28.6496 43.2702 28.6496C42.7816 28.6496 42.3863 28.3422 42.3863 27.9578C42.3863 27.5735 42.7816 27.2661 43.2702 27.2661C43.7589 27.2661 44.1542 27.5735 44.1542 27.9578ZM45.8288 24.6581C45.8288 24.3616 46.1143 24.1145 46.4712 24.1145C46.828 24.1145 47.1135 24.3561 47.1135 24.6581C47.1135 24.9601 46.828 25.2016 46.4712 25.2016C46.1143 25.2016 45.8288 24.9601 45.8288 24.6581ZM30.763 18.8492C30.763 19.2006 30.4775 19.4916 30.1206 19.4916C29.7637 19.4916 29.4782 19.2061 29.4782 18.8492C29.4782 18.4923 29.7637 18.2068 30.1206 18.2068C30.4775 18.2068 30.763 18.4923 30.763 18.8492ZM34.7985 26.3821C34.2549 26.3821 33.8157 26.8213 33.8157 27.3649C33.8157 27.9084 34.2549 28.3477 34.7985 28.3477C35.342 28.3477 35.7813 27.9084 35.7813 27.3649C35.7813 26.8213 35.342 26.3821 34.7985 26.3821ZM35.2212 27.8371C35.051 27.9304 34.9028 27.9743 34.7655 27.9743C34.6887 27.9743 34.6118 27.9578 34.5459 27.9304C34.3702 27.848 34.2439 27.6723 34.1835 27.3978C34.1671 27.3264 34.211 27.2496 34.2879 27.2331C34.3647 27.2166 34.4361 27.2606 34.4526 27.3374C34.4965 27.5186 34.5679 27.6339 34.6612 27.6778C34.7875 27.7327 34.9687 27.6669 35.095 27.5955C35.1608 27.557 35.2432 27.5845 35.2816 27.6504C35.3201 27.7163 35.2926 27.7986 35.2267 27.8371H35.2212ZM34.1616 19.4861C33.8102 19.4861 33.5192 19.2665 33.5192 18.992C33.5192 18.7174 33.8047 18.4978 34.1616 18.4978C34.5185 18.4978 34.804 18.7174 34.804 18.992C34.804 19.2665 34.5185 19.4861 34.1616 19.4861ZM33.1294 22.4894C33.1294 22.7364 32.9098 22.9341 32.6352 22.9341C32.3607 22.9341 32.1411 22.7364 32.1411 22.4894C32.1411 22.2423 32.3607 22.0446 32.6352 22.0446C32.9098 22.0446 33.1294 22.2423 33.1294 22.4894ZM38.9877 28.8418C38.3618 28.8418 37.8567 29.3689 37.8567 30.0223C37.8567 30.6756 38.3618 31.2027 38.9877 31.2027C39.6136 31.2027 40.1187 30.6756 40.1187 30.0223C40.1187 29.3689 39.6136 28.8418 38.9877 28.8418ZM39.372 30.6482L39.2897 30.6756C39.1689 30.7195 39.0316 30.769 38.8834 30.769C38.6802 30.769 38.4661 30.6756 38.2684 30.3407C38.23 30.2748 38.252 30.1925 38.3179 30.154C38.3837 30.1156 38.4661 30.1376 38.5045 30.2034C38.7296 30.5878 38.9163 30.5219 39.2018 30.4176L39.2897 30.3846C39.361 30.3627 39.4379 30.4011 39.4654 30.4725C39.4873 30.5438 39.4489 30.6207 39.3775 30.6482H39.372ZM7.43959 17.3283C7.15409 15.3298 8.27414 13.6388 10.7668 12.3046C18.0087 8.42834 36.2205 8.67541 40.7391 12.7109C40.8435 12.8042 40.8489 12.958 40.7611 13.0623C40.6678 13.1666 40.514 13.1721 40.4097 13.0842C36.3358 9.44407 18.6566 8.64796 10.9974 12.7438C8.70788 13.9682 7.67568 15.4891 7.92824 17.2625C7.9502 17.3997 7.85138 17.5205 7.7196 17.5425C7.70862 17.5425 7.69764 17.5425 7.68666 17.5425C7.56587 17.5425 7.46155 17.4546 7.44508 17.3283H7.43959ZM25.8491 25.0589C25.9808 25.0479 26.1071 25.1467 26.1181 25.284C26.1291 25.4213 26.0302 25.5421 25.893 25.553C25.1847 25.6189 24.0866 25.6903 22.7689 25.6903C20.3037 25.6903 17.0588 25.4377 14.1215 24.4165C13.9897 24.3726 13.9238 24.2298 13.9677 24.1036C14.0117 23.9718 14.1544 23.9059 14.2807 23.9498C18.8323 25.5311 24.2843 25.2016 25.8491 25.0644V25.0589ZM11.6068 15.8953C11.4366 16.7683 11.6947 17.6633 12.359 18.4868C13.9293 20.4304 17.4761 21.6933 21.6104 21.7756C21.7477 21.7756 21.8575 21.8909 21.852 22.0282C21.852 22.1654 21.7367 22.2697 21.6049 22.2697C17.262 22.1819 13.6603 20.8862 11.9747 18.7998C11.217 17.8609 10.9205 16.8232 11.1182 15.8075C11.1456 15.6702 11.2774 15.5879 11.4092 15.6098C11.541 15.6373 11.6288 15.7636 11.6068 15.9008V15.8953ZM29.588 29.5336C29.5716 29.4567 29.621 29.3854 29.6979 29.3744C29.7692 29.3579 29.8461 29.4073 29.8571 29.4842C30.3183 31.889 30.4061 36.3143 30.1041 42.2714C30.1041 42.3428 30.0383 42.4032 29.9669 42.4032H29.9614C29.8845 42.4032 29.8296 42.3373 29.8296 42.2605C30.1261 36.3253 30.0438 31.9219 29.588 29.5391V29.5336Z" fill="white"></path></g></g><defs><clipPath id="clip0_17254_1320"><rect width="52" height="52" fill="white"></rect></clipPath><clipPath id="clip1_17254_1320"><rect width="52" height="36.5389" fill="white" transform="translate(0 8)"></rect></clipPath></defs></svg> 